# xmcd
#
# Track frame offsets:
#	150
#	24575
#	47908
#	71542
#	95002
#	117227
#	138681
#	169507
#	192944
#	220509
#	243338
#
# Disc length: 4032 seconds
#
# Revision: 0
# Processed by: cddbd v1.5.1PL2 Copyright (c) Steve Scherf et al.
# Submitted via: dBpowerAMP V4.0
#
DISCID=9a0fbe0b
DTITLE=Pete Dunn - Relax Chill Lounge
DYEAR=1900
DGENRE=
TTITLE0=Paradise of Flowers
TTITLE1=Head, Heart ands Hands
TTITLE2=Sound of Silence
TTITLE3=Magic Moods
TTITLE4=Silent Dreams
TTITLE5=Evening Breeze
TTITLE6=Mystic Places
TTITLE7=Oasis of Silence
TTITLE8=Promenade in the Forest
TTITLE9=A Meadow in Summer
TTITLE10=Caravan in the Sunset
EXTD=
EXTT0=
EXTT1=
EXTT2=
EXTT3=
EXTT4=
EXTT5=
EXTT6=
EXTT7=
EXTT8=
EXTT9=
EXTT10=
PLAYORDER=
